<svg width="1941" height="579" xmlns="http://www.w3.org/2000/svg" xmlns:xlink="http://www.w3.org/1999/xlink" xml:space="preserve" overflow="hidden"><g transform="translate(-1160 -572)"><text fill="#1A213D" font-family="Poppins Medium,Poppins Medium_MSFontService,sans-serif" font-weight="500" font-size="275" transform="matrix(1 0 0 1 1745.08 879)">Aptitude</text><g><g><g><path d="M184.063 244.549C166.944 244.549 149.703 245.388 132.816 247.044L107.142 249.56 184.063 55.2101 241.911 201.392C266.128 203.721 290.112 207.54 313.512 212.772L214.781 0 153.953 0 33.1018 267.077 25.9605 269.439C17.2076 272.331 8.51 275.499 0 278.887L32.7265 322.011C79.3273 303.854 131.447 294.296 184.063 294.296 236.679 294.296 288.788 303.854 335.4 322.011L368.115 278.887C311.603 256.404 248.181 244.549 184.063 244.549" fill="#19213C" transform="matrix(1.00186 0 0 1 1160.1 639)"/></g></g></g></g></svg>